# xmcd
#
# Track frame offsets:
#	150
#	9600
#	21900
#	32850
#	46208
#	55936
#	68634
#	80469
#	90939
#	100142
#
# Disc length: 1461 seconds
#
# Revision: 1
# Processed by: cddbd v1.5.2PL0 Copyright (c) Steve Scherf et al.
# Submitted via: audiograbber 1.83.01
#
DISCID=7105b30a
DTITLE=The Kendalls - Heart Of The Matter
DYEAR=1980
DGENRE=Country
TTITLE0=Your'd Make An Angel Wanna Cheat
TTITLE1=Put It Off Until Tomorrow
TTITLE2=Gone Away
TTITLE3=Everlasting Love
TTITLE4=I'll Be Hurtin' Either Way
TTITLE5=Heart Of The Matter
TTITLE6=I'm Already Blue
TTITLE7=I Take The Chance
TTITLE8=I Don't Drink From The River
TTITLE9=I Don't Do Like That No More
EXTD=
EXTT0=
EXTT1=
EXTT2=
EXTT3=
EXTT4=
EXTT5=
EXTT6=
EXTT7=
EXTT8=
EXTT9=
PLAYORDER=
